<svg height="511pt" viewBox="-64 1 511 511.999" width="511pt" xmlns="http://www.w3.org/2000/svg"><path d="m192.417969 0c-105.824219 0-191.917969 86.09375-191.917969 191.917969 0 12.601562 4.902344 24.445312 13.8125 33.351562 8.90625 8.910157 20.753906 13.816407 33.355469 13.816407 26.003906 0 47.160156-21.15625 47.167969-47.167969-.003907-26.066407 10.148437-50.570313 28.578124-69 18.429688-18.433594 42.9375-28.582031 69.003907-28.582031 53.808593 0 97.582031 43.773437 97.582031 97.582031 0 49.488281-37.023438 90.492187-84.828125 96.757812l17.414063-87.542969c2.460937-12.359374-.039063-24.933593-7.039063-35.410156-7-10.476562-17.660156-17.601562-30.019531-20.058594-3.042969-.605468-6.148438-.910156-9.234375-.910156-22.410157 0-41.851563 15.96875-46.226563 37.96875l-54.28125 272.902344c-2.460937 12.355469.039063 24.929688 7.039063 35.40625s17.660156 17.597656 30.019531 20.054688c3.042969.605468 6.152344.914062 9.234375.914062 22.414063 0 41.855469-15.972656 46.226563-37.972656l17.9375-90.1875h6.175781c105.824219 0 191.917969-86.097656 191.917969-191.921875s-86.09375-191.917969-191.917969-191.917969zm0 0" fill="#ff4949"/><path d="m192.417969 0v94.335938c53.808593 0 97.582031 43.777343 97.582031 97.585937 0 49.484375-37.023438 90.488281-84.828125 96.757813l17.414063-87.546876c2.460937-12.359374-.039063-24.933593-7.039063-35.410156-5.660156-8.472656-13.71875-14.75-23.128906-18.140625v236.257813c105.824219 0 191.917969-86.09375 191.917969-191.917969 0-105.828125-86.09375-191.921875-191.917969-191.921875zm0 0" fill="#f30051"/></svg>